
<svg t="1540975974085" class="icon" style="" viewBox="0 0 1024 1024" version="1.1" xmlns="http://www.w3.org/2000/svg" p-id="3572" xmlns:xlink="http://www.w3.org/1999/xlink" width="200" height="200">
	<path fill="#FFFFFF" stroke="#fb9000" stroke-width="10" stroke-linecap="round" stroke-linejoin="round"  d="M774.5 310.2c-3.3-1.2-81.4-29.4-81.4-86.6 0-21.6 7.2-38 16.3-50-42-4.1-115.5-7.9-206.7 1.3-196.9 19.9-229.3 107.7-232.7 119.2l0 1.7-34.8 0 0.3-7c0.9-5.1 25.7-124.4 263.6-148.5 150-15.1 251.1 3.3 255.4 4.1l58.3 10.9L758 177.6c-1.1 0.5-30.1 13.2-30.1 46 0 27.1 43.1 48.5 58.2 53.8l11.6 4.1 0 14.2-18.1 0L774.5 310.2z" p-id="3573"></path>
	<path fill="#FFFFFF" stroke="#fb9000" stroke-width="10" stroke-linecap="round" stroke-linejoin="round"  d="M392.4 430.8c-19.2 0-34.8 38.9-34.8 86.9 0 48 15.6 86.9 34.8 86.9s34.8-38.9 34.8-86.9C427.1 469.7 411.5 430.8 392.4 430.8L392.4 430.8z" p-id="3574"></path>
	<path fill="#FFFFFF" stroke="#fb9000" stroke-width="10" stroke-linecap="round" stroke-linejoin="round"  d="M635.6 430.8c-19.2 0-34.8 38.9-34.8 86.9 0 48 15.6 86.9 34.8 86.9 19.2 0 34.8-38.9 34.8-86.9C670.4 469.7 654.8 430.8 635.6 430.8L635.6 430.8z" p-id="3575"></path>
	<path  fill="#FFFFFF" stroke="#fb9000" stroke-width="10" stroke-linecap="round" stroke-linejoin="round"  d="M152.4 464.7c0 0-9.6 27.4-57.3 56.9 0 0 28.6 6.1 57.3 58.3 0 0 9.7-32.6 57.7-58.3C210.1 521.6 180.8 514.6 152.4 464.7z" p-id="3576"></path>
	<path fill="#FFFFFF" stroke="#fb9000" stroke-width="10" stroke-linecap="round" stroke-linejoin="round"  d="M873 408c-31.2 0-59.5 12.5-80.2 32.8l0-56.6-1.1-40.3L627.9 343.9c-9.1 0-16.1-12.3-16.1-21.5l0-79.3L525.5 298c-2.7 1.7-5.8 2.6-8.9 2.6-3.1 0-6.3-0.9-9-2.7l-83.7-54.4 0 78.9c0 9.2-7 21.5-16.2 21.5L236.3 343.9l-1.1 40.3 0 56.6c-20.7-20.3-49-32.8-80.2-32.8-63.5 0-115 51.7-115 115.5 0 63.8 51.5 115.5 115 115.5 33.8 0 64.1-14.7 85.2-38.1C265.8 745.9 394.2 813 514 813c119.8 0 248.2-67 273.9-212.1 21 23.3 51.4 38.1 85.2 38.1 63.5 0 115-51.7 115-115.5C988 459.7 936.5 408 873 408zM155 604.2c-44.2 0-80.2-36.2-80.2-80.7 0-44.5 36-80.7 80.2-80.7 44.2 0 80.2 36.2 80.2 80.7C235.2 568 199.2 604.2 155 604.2zM758 546.8c0 159-126.5 231.4-244.1 231.4-117.5 0-244-72.4-244-231.4L269.9 384.7l0.2-6 137.6 0c30.5 0 50.9-29.1 50.9-56.3l0-14.8 30 19.5c8.3 5.4 18 8.3 27.9 8.3 9.8 0 19.3-2.8 27.5-8l32.9-20.9 0 16c0 27.2 20.5 56.3 50.9 56.3l130 0 0.2 6L758 546.8zM873 604.2c-44.2 0-80.2-36.2-80.2-80.7 0-44.5 36-80.7 80.2-80.7 44.2 0 80.2 36.2 80.2 80.7C953.2 568 917.3 604.2 873 604.2z" p-id="3577"></path>
	<path fill="#FFFFFF" stroke="#fb9000" stroke-width="10" stroke-linecap="round" stroke-linejoin="round"  d="M870.4 464.7c0 0-9.6 27.4-57.2 56.9 0 0 28.6 6.1 57.2 58.3 0 0 9.8-32.6 57.7-58.3C928.1 521.6 898.9 514.6 870.4 464.7L870.4 464.7z" p-id="3578"></path>
</svg>