<?xml version="1.0" standalone="no"?><!DOCTYPE svg PUBLIC "-//W3C//DTD SVG 1.1//EN" "http://www.w3.org/Graphics/SVG/1.1/DTD/svg11.dtd"><svg t="1540977522282" class="icon" style="" viewBox="0 0 2536 1024" version="1.1" xmlns="http://www.w3.org/2000/svg" p-id="14755" xmlns:xlink="http://www.w3.org/1999/xlink" width="495.3125" height="200"><defs><style type="text/css"></style></defs><path  fill="none" stroke="#ffffff" stroke-width="10" stroke-linecap="round" stroke-linejoin="round"  d="M119.060483 162.306668c-25.251209 26.458559-53.002058 38.161967-53.002057 72.871762 0 40.479594-24.953922 54.573433-46.370734 86.122277-43.852893 64.596258-9.786209 137.540825 56.308619 170.58824 48.093786 24.043859 61.447441 8.791207 99.372792-11.5942 30.28689-16.284057 45.600214-16.951437 82.809648 1.656314 33.751196 16.878632 69.334652-21.447147 99.366724-4.968943 16.083843 8.827609 34.461045 83.058399 33.126286 102.68542-2.141681 31.445703-45.497073 76.857838-57.971 114.273553-17.831164 53.505626-30.838995 104.402405-59.621248 152.368782-14.451797 24.092396-33.259762 74.534144-64.590191 74.534144-44.277589 0-80.219003-16.563143-102.68542 39.745476-10.326179 25.89432 7.917546 57.200481 39.751543 62.933877 16.908967 3.045677 34.940345-9.937886 52.995991-9.937886 23.255138 0 68.345717 8.88828 89.434905-1.656314 17.515675-8.748737 15.398263-17.794761 26.501029-28.151277 7.517119-7.013551-4.756595-11.891487 3.312629-19.875771 0.521769-0.521769 17.685554 4.671656 23.1884 0 33.872538-28.739783 56.187278-66.119096 89.434906-99.372792 59.396766-59.384632 101.76929-117.416303 139.118267-192.120325 14.287986-28.569905 48.184792-97.983429 86.122277-102.68542 10.860083-1.346893 45.260457 17.697688 59.621248 19.875772 20.039583 3.03961 47.808633 8.354377 67.90282 1.656314 24.298677-8.099559 32.8472-12.850087 48.033115 9.931819 21.83544 32.750127 43.61021 69.83822 54.597701 108.267138 11.915756 41.711212 37.027422 112.131872 77.901376 135.198931 45.296859 25.554564 97.261446 0.788721 145.743525 9.937886 47.499211 8.967152 44.059174 34.285099 96.060163 8.281571 49.786503-24.899318-32.901804-65.918883-46.376801-86.128344-30.110945-45.157316-51.266871-9.064226-86.122277-26.488895-46.716557-23.364346-29.419297-72.289322-23.1884-114.27962 8.384712-56.490632 12.134171-32.562047 56.308619-54.652305 31.749058-15.877562 81.632634-65.281839 112.623306-67.902819 80.989523-6.855806 99.651877 135.374876 142.436964 178.869811 42.105572 42.815421 118.453775 59.863931 172.244553 82.809648 36.184097 15.428598 100.112976 30.317226 53.002058 59.615181-11.278712 7.013551-40.989229 16.981772-54.664439 21.538153-25.02066 8.342242-52.255806 64.590191-77.834638 64.590191-67.114098 0-41.080235 116.233222-3.312629 79.49702 27.33222 13.948229 77.507016 0 112.623306 0 20.62809 0 25.857918-11.970359 34.776533-29.813658 9.100628-18.201256 39.132701-8.718402 46.376801-23.182333 26.22801-52.462087 105.130455-54.063798 144.093277-89.434906 41.699078-37.86468-7.05602-64.48705-9.943952-112.623306 59.099479 12.61347 107.314606-0.327623 165.619296-14.900761 5.157023-1.292289 51.72797 53.32968 59.627315 64.590191 23.303675 33.241561 16.884699 24.796178-13.256581 46.370733-150.439449 107.727168 140.410557 130.709287 152.374849 43.064172 97.570867 32.525645 294.417452 56.80612 377.609326-26.494962 37.361112-37.409648 1.983937-40.412856-34.776533-28.157343-49.665161 16.557076-108.072992 26.70731-160.650354 24.844715-66.386048-2.354029-139.124335-9.937886-175.557182-64.590191-27.502098-41.256181-59.876066-87.76039-66.252572-137.461953-3.421836-26.683041 9.507123-76.396739-19.875772-91.09122-45.042042-22.521021-119.139356-4.884004-145.737458-38.089162-19.56635-24.420019-23.85578-67.581264-38.095229-96.060163-18.686623-37.379313-36.663397-74.910303-58.171214-110.760711-40.182306-66.974555-82.82785-121.341707-137.255673-175.763463C1583.624557 40.230843 1404.299715 41.262248 1274.154667 17.594548c-142.345957-25.882186-281.676573 52.274008-419.745235 22.150928C797.48197 27.326153 750.29218 0 690.44645 0c-64.917814 0-123.101162 28.545637-183.838754 46.370734-23.928585 7.025685-68.115168 25.324014-92.747534 19.875771-31.779393-7.031752-12.140238-30.681251-39.751544-39.751543-30.960337-10.174502-107.630095 30.553842-105.998048 62.939944-20.403608-3.882935-41.335053-5.988213-59.627315-16.563144-18.176988-10.508192-43.039904-56.047735-62.933877-36.432847-6.236964 6.145957-3.03961 52.692636-6.625257 62.933876-8.233035 23.540291-23.491755 34.442844-19.863638 62.933877m1636.323261 218.621354c-32.859334 32.859334-29.947133 37.810076-3.312628 72.871763 19.669491 25.900387 43.622344 45.054176 72.871762 59.621248-18.844367-43.992436-35.892877-97.504129-69.559134-132.493011" fill="" p-id="14756"></path><path  fill="none" stroke="#ffffff" stroke-width="10" stroke-linecap="round" stroke-linejoin="round"  d="M758.349269 23.1884c-9.167366-5.563517-22.763704-6.825471-33.126286-9.937886 5.715194 55.01633 51.97672 53.469223 76.190458 92.747535 13.67521 22.187331 33.120219 89.938474 33.120219 117.592248 0 30.462836 43.774021 74.552345 62.939944 91.09122 15.11311 13.044234 28.16341 19.936443 39.745476 36.432848 11.102766 15.816892 9.713404 32.003875 29.813658 43.064172-43.17338 0.024268-40.406789-51.673366-76.184391-66.246505 16.629881 31.918936-1.923266 67.981692 6.625257 99.372791-21.180195-13.365789-11.861152-47.104851-16.563143-72.871763-6.218763-34.072751-21.817239-43.61021-39.745476-72.871762-11.248376-18.346866-30.026006-52.510624-36.438915-72.871762-10.672003-33.884672 0.175945-60.895336-23.1884-89.434906-22.721235-27.756916-57.940665-49.367874-79.49702-76.184391-17.552078-21.829373-22.35721-37.816143-61.283629-24.844715-72.962769 24.316878-162.816303 61.338233-240.147374 61.271496 18.055646 33.296165-22.951784 73.660484 3.312629 102.68542-36.372177 10.57493 4.544247-114.752853-36.438915-135.811706-4.271228-2.190218-59.439235 9.209836-69.559134 16.563143-20.136656 14.645944-25.366484 50.174796-16.563143 72.871762-12.522464-8.651664-15.50747-8.469651-16.557076-26.501029-34.910009 2.56031-41.116638 33.496378-19.875771 53.002058-15.962502 1.971803-24.54136-6.600989-26.501029-23.1884-27.33222 16.635948 3.640251 29.164479 6.625257 52.99599-8.578859-9.416117-22.102392-14.645944-33.120219-19.869704 3.494641 10.902552 0.825124 15.295122 6.625257 23.182333-24.329012-13.23838-44.144113-16.696619-59.627315 16.563143-19.675558-32.604517 26.51923-43.070239 56.314686-57.964934 17.606682-8.803341-23.273339-31.469972 3.312629-31.469971 19.232661 0 34.7826-9.434318 43.064172-26.501029-36.887879-1.692717-65.92495-29.85006-86.122277-52.995991 14.809755 47.025979-32.543846 76.663691-23.1884 112.623306 8.839743-9.840812 26.052065-22.988186 39.751543-29.813658-10.690204 39.423921-76.16619 53.845383-92.747534 96.060163-6.127756 15.598476 5.781932 33.648055 0 49.683362-7.711266 21.404677-33.259762 34.861473-46.370733 53.002058C6.030683 361.82277-10.107764 407.950821 46.182654 397.491165c-6.685928 1.243753 31.518509-39.703007 19.869704-6.625257-6.194494 17.594548-14.876493 31.651984-36.432847 29.807591 22.927516 50.866444 50.617693 23.358279 96.060163 39.751543-14.227315 5.879006-34.527783 8.967152-49.683363 16.557076 16.023172 26.094534 52.255806 13.341521 69.559134 0 3.197354-2.463237-2.402566-16.375063 0-19.869705 6.194494-9.015689 10.993559 4.835467 16.557076-3.312628 9.689135-14.184846 14.190913-17.218388 19.875772-33.126286 16.296191 25.190538 51.83111 14.239449 64.590191 39.751543 16.830095 33.66019 72.695817-3.367232 97.716477 0 36.214433 4.865802 31.457838 17.576346 39.745476 49.683362 6.176293 23.886115 10.368649 50.550955 21.532086 72.871763 8.445383 16.890766-18.267994 34.109154-28.157343 49.677295-30.814727 48.554884-40.170172 107.278204-57.971001 160.650353-14.354724 43.070239-52.692636 77.240064-72.871762 117.592249-16.083843 32.173754-163.562555 3.804063-130.836696 79.503087 10.744808-11.430389 22.969985-21.750501 36.432847-26.501029-1.674516 14.287986-8.499987 26.992463-16.563143 33.126286 19.256929 14.834024 59.093412 8.542456 79.49702-1.656314 36.942483-18.468208 38.422852 22.46035 72.871762 1.656314 14.536737-8.779073 3.804063-26.397888 16.563143-36.438915 11.758011-9.258372 27.829721-2.341895 39.751544-9.937886 42.002432-26.774048 69.176907-95.1501 112.623306-129.186449-29.498169-13.754083-52.462087-82.257544-52.995991-115.929867h6.625257c12.255512 57.704049 50.823974 45.084511 86.122277 72.871763-2.833329-29.358626-31.597381-42.845757-33.120219-72.871763 38.077028 20.470346 47.62662 45.169451 76.184391-6.625257 29.249419-53.074863 50.362876-103.619751 99.366724-135.811706-18.522812-9.1795-92.092289-2.014272-79.497019-33.120219 19.299399 15.016036 61.077348 10.568863 86.122276 19.875771 35.996018 13.371856 63.243298 33.933208 105.998049 29.813658-16.17485-21.695897-24.335079-73.866764-23.1884-99.372791 0.72805-16.253722 10.769077-30.104878 9.937886-49.683363-1.316558-30.942135-20.767633-59.111613-29.813658-86.122276 86.158679 39.684805-1.619912 219.96218 69.559134 235.184497-4.877937-28.036002-4.046746-73.787892-16.563143-99.372791 22.114526 3.312629 16.563143 24.765842 16.563143 44.720486 0 33.739062 10.975357 16.975705 21.532086 38.089162 2.675585 5.351169 96.236108 4.289429 117.592249 0-19.214459 31.439636-49.731899 8.973219-79.503087 16.563143 15.210183 49.828972 53.657303 98.031965 71.215448 150.712468 15.009969 45.029908 40.315782 107.654363 92.747534 107.654363 47.226193 0 118.957343-11.88542 154.025096 23.182333 24.322945 24.322945 76.087318-33.126286 19.875772-46.376801-7.013551 19.27513-28.515301 20.603822-43.064172 13.250515 29.291888-8.129894 16.993906-51.260804-6.625257-62.933877-20.779767-10.265508-49.349672 11.509261-72.871763-3.312628-57.406762-36.159829-10.447521-185.288787-6.625257-238.491059 2.590645-36.147695 10.380783-74.576613-6.625257-105.998049-22.199465-40.995296-72.265054-67.787545-99.372791-105.991981-19.050648-26.85292-45.515274-64.535587-61.277563-96.060163-12.69841-25.390752-10.295844-81.729707-34.776533-89.434906 1.261954 16.660216 2.147748 32.646986 0 46.376801-16.162715-24.735507-17.00604-56.757584-39.751543-79.49702-26.66484-26.689109-43.968168-26.300815-46.3586-69.565201" fill="#FFB31C" p-id="14757"></path><path  fill="none" stroke="#ffffff" stroke-width="10" stroke-linecap="round" stroke-linejoin="round"  d="M304.549485 202.058211c-26.925725-2.275157-16.199118-33.393238-43.058105-33.120219 5.059949 17.946439 15.719818 64.48705 43.058105 33.120219M1483.766399 308.050193c-3.8708 7.080289-8.123827 13.705546-13.250514 19.875771-2.014272-16.223386 7.177362-38.34398 6.625257-59.627315-0.800855-30.905733-15.562074-62.727596-19.869705-92.747534-5.787999-40.309715-8.026754-75.037712-26.501029-112.623305 34.363972 7.686997 35.583456 75.183322 43.064172 105.998048 11.776213 48.554884 38.040625 91.430977 9.931819 139.124335" fill="" p-id="14758"></path><path  fill="none" stroke="#ffffff" stroke-width="10" stroke-linecap="round" stroke-linejoin="round"  d="M2036.938975 821.471226c-20.100254 24.595964-82.263611 34.351837-79.503086 69.559133 12.716611-10.708406 28.491033-18.783696 46.3768-16.557076-27.277616 19.724095-25.930723 72.586609 16.557076 51.345744 39.429988-19.718027 65.700468-24.959989 105.998049-34.782601-25.269411-23.691968-65.002753-46.352532-89.428839-69.5652M1924.31567 549.859947c44.174449 4.671656 145.743525-6.667727 145.743524 59.621248 0 44.022771 3.531044 72.805024 23.188401 109.310678 12.704477 23.600962 29.789389 44.289723 36.432847 69.565201-86.389229-60.246158-135.884511-157.422664-205.364772-238.497127" fill="#FFB31C" p-id="14759"></path><path  fill="none" stroke="#ffffff" stroke-width="10" stroke-linecap="round" stroke-linejoin="round"  d="M1053.155015 387.55328c-14.239449-52.346813-14.476066-83.622638-46.376801-129.186449-29.607377-42.281518-17.157717-90.02948-52.995991-132.493011l6.625258-3.312628c33.890739 62.133021 61.24116 121.602592 99.372791 182.182439 16.915034-59.712254-41.00743-115.129012-64.590191-162.306668-9.276574-18.553147-11.05423-112.659708-51.339676-82.809648 17.206254 12.225177 25.190538 34.382173 23.1884 52.995991-24.911453-28.484966-39.035627-56.308619-81.153334-56.30862-69.765415 0 12.401123 43.998503 21.532086 79.49702-61.034879-26.555633-69.83822-85.194013-122.561192-105.991981-18.723025 40.170172 20.682694 44.702285 48.033115 62.933876 29.073473 19.378271 54.694775 55.859655 64.590191 89.434906 9.549592 32.416437 5.982146 68.278979 19.875772 99.372791 13.869357 31.045276 39.411787 43.246185 66.246505 66.246505 1.929333-26.149138 1.450033-44.708352-6.625257-69.559134 11.812615-1.528906 38.325778 89.744327 52.995991 109.310678 14.257651 19.014246 27.174475 31.027075 33.120219 52.99599 9.670934 35.735133-21.119524 115.274622 0 139.124335 38.847548-42.245115 39.751543-133.01478 39.751543-188.807697 0-23.558493-19.220526-54.961726-11.5942-77.846772 12.103835-36.311506 3.409702-82.906722-11.5942-117.592249 2.991073 0.782654 5.199492-0.321556 6.625257-3.312629 38.665535 45.964239 18.644153 142.989068 36.432848 202.058212 15.325458 50.878578 9.731605 103.868502 29.813657 152.368782 40.097367-55.714045 6.825471-133.469811 23.1884-192.120326 21.095256 25.74871 38.40465 97.674007 26.494962 129.180382h-6.625257c-1.692717-13.553869-5.272297-26.288681-6.625257-39.745476-1.031405 25.590966-4.647387 50.326473-6.625257 76.184391 81.832848-47.681224 114.740719 33.702659 152.368782 102.68542 21.932514-27.047067 24.262274-56.84859 59.627315-74.528077 25.257276-12.631672 65.15443-81.82678 79.497019-107.654363 15.040305-27.089536 32.513511-52.377148 43.064172-79.497019 11.187705-28.764052 11.575999-50.192997 33.126286-76.184391 0.588507 26.045998-26.501029 54.342884-26.501028 87.778591 0 27.496031-36.17803 65.688333-49.683363 87.784658-18.116317 29.625578-40.867887 61.86607-59.621248 92.741467-14.542804 23.95892-56.80612 91.230763-49.683362 115.935935 22.599893 78.43528 268.862888 81.541627 258.366831 152.368782-6.983215 47.159455-75.110517 14.415395-91.097287 46.3768-15.84116 31.694454-59.014539 50.921048-84.459895 72.87783-12.783349 11.029961-32.507443 21.125591-26.501029 39.745476 11.709475 36.275103 37.755472-5.539249 49.683362-19.869705 0.697715 14.239449-1.06174 19.85757-13.250515 33.120219 25.967125 7.468582 51.187999-3.154884 79.503087-6.625257 12.401123-1.516771 29.37076 14.136309 38.089162-3.306561 7.134892-14.269785 15.731952-23.607029 31.469972-31.469972 34.248697-17.127382 54.336817-47.383937 91.09122-59.627315 45.654817-15.222317 103.983776-37.737271 94.403848-84.465963-7.407911-36.111292-43.149111-88.500574-72.871762-109.310677-28.970333-20.294401-87.074809-28.400027-104.341735-62.939944-11.770146-23.546358-15.853294-93.615127-28.151276-96.060162-19.208392-3.822264-68.77648 47.717626-82.809648 59.621248-22.114526 18.741227-44.101644 37.804009-62.933877 59.627315 2.681652-38.477455 36.275103-71.136576 69.559134-87.778592 38.210504-19.105252 49.653027-54.76758 89.434906-71.215448 68.382119-28.284752 111.579767-84.120139 155.681411-145.743525 90.084084 100.282854 125.667539 261.40644 210.339782 374.296699 93.184364 124.253908 206.208098 168.931925 356.077241 168.931925 53.41462 0 131.66182-11.175571 178.863744-34.770467 47.754029-23.880048 5.527115-24.189469-26.494962-14.906828-94.682934 27.43536-213.367258 33.496378-304.743631-13.256582-215.035707-110.002325-278.994921-379.678203-394.178537-569.729652-20.257998 40.795082-68.351784 155.293117-112.623306 159.000106 21.513885-22.084191 40.158038-47.778297 52.995991-76.184391 9.36758-20.725164 41.19551-75.868903 43.064172-89.434905 6.971081-50.830041-82.221141-121.353842-122.561192-135.805639 23.370413 42.663744 39.751543 86.025204 39.751544 135.805639 0 47.620553-34.38824 78.708299-54.658372 119.248563-19.997113 40.006361-42.700147 75.341066-81.153334 102.68542-20.063851 14.269785-54.567366 54.43389-76.184391 59.627315 9.397915-39.065963 52.60163-73.775758 82.809648-99.372791 14.997835-12.710544 49.677295-29.473901 49.677295-49.683363 0-16.138447 13.450728-39.46639 23.1884-53.002057 33.041347-45.915702 65.020954-98.778217 23.1884-155.681411-4.968943 30.95427-8.396846 55.368221 0 86.122277-47.741895-5.448243-11.139169-75.444207-13.256581-102.679353-1.486436-19.220526-19.147721-49.325404-36.432848-57.971001-18.116317-9.058158-66.398182-48.130188-56.308619-8.281571 5.587786 22.102392 40.461392 35.650194 49.683362 56.308619 8.196632 18.377202 12.789416 55.580569 13.250514 76.184391 0.794788 35.807938-34.175892 182.491861-66.252572 182.18244 26.12487-42.675879 36.014219-113.715381 43.064172-155.681411 7.693064-45.800427-5.472511-70.802886-16.557076-109.310677-18.941441 27.174475 15.301189 89.30143-16.557076 109.310677-1.389363-63.225097-11.509261-166.232072-76.190458-198.745583-28.709448-14.427529-88.670453-28.284752-64.590191 19.875772 14.0089 28.0178 38.11343 65.287906 44.714419 96.060163-43.761887-26.555633-53.790779-112.417025-106.004115-139.118268-22.836509-11.679139-74.534144-15.574208-72.871763 3.312629 2.178084 24.759775 43.246185 40.449258 56.30862 56.308619-58.24402-7.153094-76.002378-81.214005-129.180382-69.559134 65.306107 65.30004 84.271816 143.510837 125.87382 215.308726-42.208713-12.401123-41.395724-77.840705-71.215448-107.654363-27.744781-27.744781-83.713644-61.101617-74.528077-97.716477 3.245891 18.65022 14.324389 40.461392 39.745477 43.058105-16.332594-34.843271-53.432821-79.011653-96.060163-52.995991 18.450007 20.713029 40.746545 34.624856 56.308619 57.964934 14.130242 21.204463 13.578137 48.694427 24.844715 71.215448 11.230175 22.478551 28.151276 27.908593 28.151276 56.308619 0 29.26762 9.234104 53.347882 23.1884 79.503087-6.024616 0.588507-4.780863-0.364025-9.931819 3.312629-25.129868-69.601603-47.050247-179.446184-109.310677-225.240545-2.159882 18.40147 20.992115 37.688734 29.807591 56.30862-40.139837 8.870079-40.370386-55.30755-59.621248-76.184392-23.097394-25.050996-59.785059-10.271576-89.434906-3.312628 31.221221 47.159455 62.618388 62.296833 90.915275 118.890605 19.972845 39.94569 78.878177 149.662862 48.20906 192.478283-16.666284-20.367206-14.743017-71.634077-26.501029-101.029105-17.169852-42.912495-39.636269-79.624428-61.957076-119.800668-11.994628-21.592757-64.741868-97.558733-87.099077-80.601229 21.168061 16.878632 33.28403 50.168729 41.40179 74.528076 6.546385 19.633088 24.086329 38.653401 31.469972 61.277563 8.093492 24.820446 11.727676 50.235467 18.219457 76.184391 5.909341 23.637365-6.91041 26.622371-8.281571 39.751543-2.220553 21.392543 9.300842 86.067673-6.613123 79.478819" fill="#FFB31C" p-id="14760"></path><path  fill="none" stroke="#ffffff" stroke-width="10" stroke-linecap="round" stroke-linejoin="round"  d="M1834.880764 536.609433c17.994975 45.575945 48.039182 82.815715 69.565201 125.87382 9.446452 18.892904 47.341467 47.541681 26.494962 57.964934-28.630576 14.318321-60.828598 21.089189-92.747534 21.538153-49.549886 0.685581-57.394628-15.901831-89.434906-39.751543-24.947855-18.577415-77.816437-30.092743-92.741467-59.627315-15.471068-30.602379 3.391501-27.326153 19.869705-46.370734 28.442496-32.865401 55.980997-73.46027 79.503086-115.935934 50.095924 22.64843-44.781157 87.366029-23.182333 125.87382 6.115622-40.327916 52.862515-51.339676 59.615181-89.434906l43.058105 19.869705" fill="#FFF2A6" p-id="14761"></path><path  fill="none" stroke="#ffffff" stroke-width="10" stroke-linecap="round" stroke-linejoin="round"  d="M1344.648132 334.551222c-6.067085-21.44108 3.306562-48.742964 3.306561-72.871763 0-12.771215-22.351143-50.81184-26.494962-69.559134-8.59706-38.865749-26.743712-70.960631-39.745476-105.991981 50.459949 38.890017 92.953815 89.374235 89.428838 162.306668-13.930028-30.669117-15.835093-77.343204-43.064172-96.060163 14.463932 34.048483 59.827529 158.61788 16.569211 182.176373M1695.756429 182.18244c2.105279 57.528104 23.989256 113.048002-13.250514 168.931925 40.71621-26.767981 52.710838-156.646077 13.250514-168.931925" fill="" p-id="14762"></path><path  fill="none" stroke="#ffffff" stroke-width="10" stroke-linecap="round" stroke-linejoin="round"  d="M1695.756429 546.547319c-41.177308 0.558172-98.802485 45.35753-52.989923 72.871762-4.307631-39.520994 53.056662-37.603795 52.989923-72.871762M1632.822553 546.547319c7.650595-56.290418 68.570199-71.700815 99.378858-102.68542 43.725484 56.041668-50.490284 97.75288-99.378858 102.68542" fill="#FFF2A6" p-id="14763"></path><path  fill="none" stroke="#ffffff" stroke-width="10" stroke-linecap="round" stroke-linejoin="round"  d="M768.287155 294.805745c-0.885794 12.601336-16.745156-5.569584-29.813657-16.563143-27.72658-23.321876-46.813631-57.497768-76.184391-79.497019-24.826513-18.601684-48.761165-26.549566-69.559134-49.683362 19.645222-8.651664 73.611947 37.173032 89.434905 52.99599 31.263691 31.269758 57.194414 58.24402 86.122277 92.747534M652.351221 261.679459c-33.593452-23.85578-50.180863-50.441748-89.434906-66.246505-53.699773-21.617025-103.644019-56.696913-139.118267-109.30461 18.128451-2.026407 30.754056 22.514954 46.3768 33.120219 23.109528 15.69555 42.863958 19.718027 62.933877 43.064172 11.776213-26.288681-24.589897-44.550608-39.745477-59.627315 40.746545 2.178084 57.625177 42.008499 86.122277 69.559134 23.789042 23.000321 75.8325 54.973861 72.865696 89.434905M774.912412 215.302659c-16.690552-48.639823-27.132006-73.029507-59.627315-105.998049 1.10421 3.312629 0 4.416838-3.312628 3.312629 8.002486 18.395403 24.031725 33.993879 29.813657 53.002058-40.139837-32.301163-62.818602-69.559134-119.242496-69.559134-18.152719 0-55.97493 1.195216-69.559134-13.250515-13.208045-14.045303-13.590271-29.813658 14.906829-29.813657 63.316103 0 260.089883 74.734358 213.646345 168.931925-2.056742-4.732327-3.531044-5.102419-6.625258-6.625257M890.848347 76.184391c41.00743 43.56774 110.317813 167.858051 66.246505 228.553173-7.595991-37.173032-18.577415-73.338928-26.501029-112.623306-2.839396-14.069571-5.302633-47.038113-11.5942-59.621248-8.542456-17.09098-29.031004-39.630202-28.151276-56.308619M453.611705 268.304717c39.041694-13.201978 69.698677 56.393559 89.434906 82.809648 5.74553-20.04565-16.350795-33.684458-23.188401-52.995991 32.428571 14.439663 59.063076 7.608125 82.809649 39.745476 7.38971 10.004624 10.756942 25.378618 16.563143 33.126286 7.298704 9.737672 22.393612 17.503541 29.80759 29.813658 10.847949 17.982841 21.119524 48.603421 9.937886 72.871762-8.936817 19.390405-43.337191 50.296138-59.621248 33.12022 29.99567-16.253722 60.064145-47.66909 43.058105-86.122277-7.656662-17.315462-66.980623-88.433836-86.122277-92.747535-0.357958 8.499987-0.588507 22.957851 0 29.813658 27.908593 11.175571 88.318562 74.946706 69.559134 102.68542-4.956809-13.195911-12.528531-11.430389-19.875772-19.875772-4.701991-5.405773-5.072083-17.279059-9.937886-23.1884-13.189844-16.02924-27.077402-42.554537-36.438914-49.683362-16.71482-12.746946-36.153762-12.965361-52.995991-33.126286-19.402539-23.23087-25.281545-42.663744-52.989924-66.246505M609.293116 569.729652c-42.906428 8.627395-62.92781 29.152345-110.966992 9.937886-27.065268-10.829747-67.120165-32.74406-94.403848-36.438915 11.187705 41.626273 68.655138 54.561299 105.998048 59.627315 24.553495 3.33083 98.426326-6.321903 99.372792-33.126286" fill="" p-id="14764"></path><path  fill="none" stroke="#ffffff" stroke-width="10" stroke-linecap="round" stroke-linejoin="round"  d="M393.98439 467.050299c19.287264 3.876868 16.817961 19.60882 29.813658 29.807591 11.521395 9.052091 35.231565 19.620954 49.683362 26.501029 27.659842 13.165575 47.311132 38.604864 79.497019 43.064172-26.731578 35.110223-144.821328-68.060564-158.994039-99.372792" fill="" p-id="14765"></path><path  fill="none" stroke="#ffffff" stroke-width="10" stroke-linecap="round" stroke-linejoin="round"  d="M1089.587862 569.729652c24.893251-42.597006 23.194467-107.496619 23.194468-155.681411 16.199118 22.466417 9.622397 50.823974 13.250514 79.49702 6.613123 52.383215 23.194467 56.308619-36.444982 76.184391M837.846289 579.667538c27.004597 65.657998 74.04271 127.584738 99.372791 192.120325-3.088146-25.766912-14.949298-58.031672-26.501029-79.497019 12.03103 5.169157 23.983188 14.791554 33.120219 26.494962-4.10135-17.703755-22.496753-32.646986-26.494961-49.683363-4.277295-18.21339 9.410049-16.86043 3.312628-36.438914-10.605265-34.024215-47.687291-64.420313-82.809648-52.995991M576.16683 596.230681c-18.583483 26.240144-32.252626 52.741173-36.432848 79.49702-16.520673-5.430041-16.733021 6.965014-24.844715 23.1884-15.816892 31.63985-15.076707-0.558172-14.906828 0-2.402566-7.820473 11.818682-34.43071 0-39.751543-3.634184-1.638113-19.299399 35.692663-19.875772 36.438914-9.986423-70.165842-37.221569 26.155205-46.376801 33.120219-0.740184-32.574181-9.094561-79.01772-26.494961-29.80759-7.468582 21.10739 9.1795 95.938821-23.188401 72.871762-3.834398 24.298677 0.903996 58.207617-13.250514 79.503087-14.59134 21.944648-31.821863 23.892182-44.720487 49.683362-13.942162 27.884324-35.807938 35.583456-34.7826 3.312629 1.10421-34.630923 30.18375-66.228304 29.813658-102.68542 2.511773 22.878979 26.501029 55.343953 26.501028 13.250514 0-23.916451-2.924335-54.166938 4.968943-77.840705 9.968221-29.910731 64.735801-169.326286 97.716477-87.778591 11.709475-5.575651 19.299399-11.036028 23.188401-26.494962 9.064226 26.488895 75.699024-6.898276 102.68542-26.507096M155.493331 308.050193c-67.1323-18.340799 27.174475-111.318882 72.871762-92.747534 29.710517 12.0735 18.098116 52.60163 0 72.871762-20.931445 23.455352-42.997434 19.875772-72.871762 19.875772" fill="#FFF2A6" p-id="14766"></path><path  fill="none" stroke="#ffffff" stroke-width="10" stroke-linecap="round" stroke-linejoin="round"  d="M142.242817 301.431003c12.619538-35.892877 6.843672-46.376801 46.3768-46.376801 24.608098 0-3.95574 59.906401-29.813657 33.120219-2.699853 11.084565-11.163437 8.257303-16.563143 13.256582" fill="" p-id="14767"></path><path  fill="none" stroke="#ffffff" stroke-width="10" stroke-linecap="round" stroke-linejoin="round"  d="M162.118588 274.929974c0-17.145583 26.501029-17.145583 26.501029 0s-26.501029 17.145583-26.501029 0" fill="#BF0000" p-id="14768"></path><path  fill="none" stroke="#ffffff" stroke-width="10" stroke-linecap="round" stroke-linejoin="round"  d="M158.80596 274.929974c6.625257-8.833676 13.250514-8.833676 19.875771 0-6.625257 8.833676-13.250514 8.833676-19.875771 0" fill="" p-id="14769"></path><path  fill="none" stroke="#ffffff" stroke-width="10" stroke-linecap="round" stroke-linejoin="round"  d="M311.174742 149.056153C262.892876 101.987705 334.508752 56.624108 367.483361 49.683362c9.264439 38.623065 20.943579 46.243325 16.563143 82.809648-10.010691 83.622638-14.045303 20.518883-72.871762 16.563143" fill="#FFF2A6" p-id="14770"></path><path  fill="none" stroke="#ffffff" stroke-width="10" stroke-linecap="round" stroke-linejoin="round"  d="M347.613657 188.807697c18.322598-27.860056 4.93254-40.746545-19.875772-49.683362 6.194494-5.248029 7.565655-12.941093 9.937886-16.557076-4.459308 5.709127-11.921823 10.156301-16.563143 19.875771-28.254417-35.346839 34.351837-37.615929 43.058105-62.939943 9.130963 14.209114 14.500334 105.318535-16.557076 109.30461" fill="" p-id="14771"></path><path  fill="none" stroke="#ffffff" stroke-width="10" stroke-linecap="round" stroke-linejoin="round"  d="M62.745797 417.36087c18.98391-6.698062 44.653748 8.11776 62.939944 0 27.417159-12.170573 10.611332-33.114152 23.1884-56.308619 23.425017-43.209782 93.390645-35.104156 132.49301-54.652305 41.662675-20.828304 70.748283-58.699051 112.623306-11.594201 21.956782 24.699105 17.279059 104.196124 56.308619 99.372792-21.368275 16.095977-56.502766-7.644528-69.559133-29.813658 21.653428 15.998904 54.385353 54.615903 62.933876 79.503087-15.920032-1.013203-30.4325-11.078498-43.058105-19.875772 35.898944 40.892155 4.817266 32.337565-33.126286 26.501029-35.898944-5.527115-66.149432-8.16023-82.809648-43.064172 16.065642 58.887131 9.84688 37.191233-29.813658 29.813658-25.688039-4.780863-52.534892 11.454657-76.184391-16.563143-16.223386 30.663049-141.338821 61.981344-145.743525 3.312628 9.130963-2.032474 20.579554-7.316905 29.807591-6.631324M85.934197 480.300814c80.41315 33.890739 44.186583-49.380008 0 0" fill="#FFF2A6" p-id="14772"></path><path  fill="none" stroke="#ffffff" stroke-width="10" stroke-linecap="round" stroke-linejoin="round"  d="M287.986341 450.487156c21.54422-17.127382-15.950367-120.734999-24.844714-147.399839-4.87187-14.615609-10.09563-31.63985-24.838648-28.157343-31.846131 7.529253 5.12062 23.273339 3.312629 33.120219-8.172364 44.435333-13.754083-17.570279-52.995991-6.625257 11.879353-17.133449 22.818308-20.888975 19.869705-43.064172-2.948603-22.217667-41.984231-15.968569-16.557076-43.064172 8.111693 12.953227 29.813658 13.650942 29.813657 26.501029 0 21.216598 27.338287-14.136309 36.438915-16.563144-22.618094 41.905359 36.432848 83.683309 36.432848 130.836697 0 25.148069 27.568836 26.440358 29.813657 51.339676 1.892931 21.083122-22.599893 51.673366-36.444982 43.076306" fill="" p-id="14773"></path><path  fill="none" stroke="#ffffff" stroke-width="10" stroke-linecap="round" stroke-linejoin="round"  d="M218.427208 404.110356c-6.303702-11.224108-12.085634-32.070613-33.120219-26.501029 8.524255 13.032099 9.264439 17.327596-6.625258 23.1884-1.965736-24.790111-32.810798-23.782975-23.1884-49.683362 12.0735 12.255512 23.673767 22.175197 36.438915 23.1884-10.502125-11.970359-6.861874-15.871495-9.937886-26.501029 28.39396 21.362208 37.537057 14.130242 59.621248-9.937886 10.350448 25.64557-16.544942 40.255111-23.1884 66.246506M340.988399 443.861899c79.066257-57.770787-13.948229-150.797407-69.559134-192.120326 60.070212-19.730162 87.857463 67.441721 112.623306 102.68542 14.124175 20.094187 35.795804 42.014566 23.188401 66.246506-6.51605 12.51033-67.029159 41.535266-66.252573 23.1884M556.291058 483.607375c-28.090605 1.553174-58.092342-11.745877-72.871762-36.432847-7.887211-13.171642 4.580649-32.489242-13.250515-41.407858-13.317252-6.66166-17.606682 21.87791-16.563143 31.469972h-6.625257c-7.037819-34.248697-4.604918-71.452064-26.501029-99.372792 28.879326 9.61633 40.546332 53.281144 59.621248 76.184391 22.951784-26.865054 19.451076 14.30012 29.813657 29.813658 11.654871 17.44287 36.523854 22.514954 46.376801 39.745476" fill="" p-id="14774"></path><path  fill="none" stroke="#ffffff" stroke-width="10" stroke-linecap="round" stroke-linejoin="round"  d="M1152.527806 546.547319c-0.236616-19.426807-7.595991-40.230843-9.937886-59.627315-3.112415-25.779046-1.049606-56.345022-13.244447-76.184391 25.245142 35.456047 32.531712-20.67056 43.058105 26.501029 7.498918 33.605586-3.100281 80.303942-19.875772 109.310677M1361.205208 665.789815c37.033489 58.614112 141.393425 82.554831 202.058211 92.747534-7.86901-10.150234-22.387545-19.475344-36.438915-26.501029-21.161994-10.580997-13.778351-16.75729-19.869704-26.494962-4.580649-7.322972 12.413257-13.669143-9.937886-24.844714-10.999626-5.496779-30.711586-1.650247-43.064172-1.650248-68.412455 0-29.637712-104.202191-39.751544-125.879887-19.014246 30.602379-38.44712 79.848911-52.99599 112.623306M1188.960654 384.240651c27.059201 16.284057 42.912495 5.387572 66.246505 6.625257 28.145209 1.492503 54.834318 21.119524 82.809648 9.937886 61.599118-24.638434 32.325431-153.369851 89.428839-162.306668 1.577442 35.007083-13.250514 66.204036-13.250515 101.029106 0 39.314713 12.079567 77.282534 9.937886 114.273553-7.280502-4.234826-16.011038-3.785861-23.182333-9.937886-7.031752 7.656662-10.556729 29.498169 6.625257 38.089162 27.041 13.523533 17.685554 18.662355 3.312629 41.407858-17.867566 28.266551-54.24581 69.31645-76.190458 92.747534-43.725484-34.309368-63.328237-178.536121-152.368783-96.060163l6.625258-76.184391 13.250514 39.745476c9.270506-34.20016-2.942536-65.906748-13.244447-99.366724" fill="#FFF2A6" p-id="14775"></path><path  fill="none" stroke="#ffffff" stroke-width="10" stroke-linecap="round" stroke-linejoin="round"  d="M1251.89453 198.745583c20.506749 53.008125 113.211813 183.298783 33.120219 228.553173 9.082427-30.899666 27.277616-112.004463-9.937885-132.493011-14.233382 57.625177 29.898597 120.995884-29.813658 172.244554-2.639182-27.799385 18.280128-44.835761 19.875772-72.871762 1.16488-20.427876-11.029961-42.512067-9.937886-66.246505s12.886489-44.138046 9.937886-66.246506c-2.960738-22.31474-30.189817-56.836456-13.244448-62.939943M1298.265264 526.677614c-11.691274-32.022077 26.531364-68.096966 39.75761-96.060162 13.523533-28.60024 3.391501-68.309314 23.182334-96.060163 0 40.81935-2.954671 75.237926-16.557076 102.68542-10.550661 21.271201-26.81045 74.176186-46.382868 89.434905M1377.774418 377.615394c0-49.574155-0.382226-89.811065 13.250514-135.805639 6.018549-20.324736 12.637739-21.29547 9.937886-43.064172-3.737325-30.03814-30.359695-49.119123-26.501029-82.809649 14.506401 5.199492 23.964987 40.38252 33.126286 59.627315 16.223386 34.066684 16.496405 33.253695-1.656314 69.559134-12.213043 24.426086-19.918241 38.744407-21.526019 66.246506-1.286222 21.720166 12.813684 60.446372-6.631324 66.246505M1414.207265 450.487156c-3.706989 2.062809-9.046024 3.81013-13.250514 6.625257 19.918241-29.85006 30.9118-51.87358 38.089162-87.778591 4.507844-22.527088 0.606709-55.070934 18.219457-64.590191-7.559588 24.498891 3.312629 48.530616 3.312629 72.871763 0 29.74692-25.002459 53.523827-46.370734 72.871762" fill="" p-id="14776"></path><path  fill="none" stroke="#ffffff" stroke-width="10" stroke-linecap="round" stroke-linejoin="round"  d="M1063.092901 579.667538c28.296886-41.450327 21.744434-97.103701 36.432847-135.805639-14.627743 26.209809-64.371776 102.272858-36.432847 135.805639" fill="#FFF2A6" p-id="14777"></path><path  fill="none" stroke="#ffffff" stroke-width="10" stroke-linecap="round" stroke-linejoin="round"  d="M1791.816592 516.733661c55.0588 25.408954 59.281491 68.667272 92.753601 112.623306-16.575277-5.612054-36.068823-17.163785-49.689429-23.1884-4.125618 11.776213-6.497848 26.009595-6.625257 39.751543 0.661312-6.558519-0.442897-13.292984 0-19.875771-26.470693 40.073099-48.809702-80.152265-86.122277-46.370734 14.160577-28.302953 36.281171-34.746198 49.683362-62.939944M1755.383744 480.300814c19.572417 15.289055 12.40719 40.534197 0 59.627315-10.144167-19.833302-12.012829-40.388587 0-59.627315" fill="#FFB31C" p-id="14778"></path></svg>